<svg width="354" height="358" viewBox="0 0 354 358" fill="none" xmlns="http://www.w3.org/2000/svg">
<g clip-path="url(#clip0)">
<path fill-rule="evenodd" clip-rule="evenodd" d="M291.256 67.6726C316.672 93.0639 338.65 122.705 344.924 158.092C351.272 193.894 342.517 230.478 325.857 262.822C309.25 295.064 285.849 326.382 251.805 338.878C219.265 350.822 185.506 331.13 151.111 326.963C114.874 322.572 73.6528 336.545 45.0969 313.832C15.9411 290.641 9.32615 249.033 6.42038 211.877C3.68715 176.927 15.2964 143.988 29.2997 111.832C44.2327 77.5415 57.2355 39.0729 89.7357 20.5584C122.784 1.73177 163.807 5.47037 200.818 14.1233C235.796 22.3009 265.851 42.292 291.256 67.6726Z" fill="#F3F3F3"/>
<path d="M132.534 84.3346C132.534 84.7331 132.999 85.1886 132.999 85.644C132.999 86.0425 132.534 86.5548 132.592 87.0102C132.65 87.4087 133.115 87.8072 133.232 88.2627C133.29 88.6612 134.046 89.0027 134.104 89.4012C134.221 89.7997 133.581 90.4259 133.697 90.8244C133.814 91.2229 134.919 91.3368 135.093 91.7353C135.21 92.1338 134.512 92.8169 134.686 93.2154C134.861 93.6139 135.791 93.6708 135.966 94.0693C136.14 94.4678 137.187 94.4109 137.362 94.8094C137.536 95.2079 137.187 95.8341 137.362 96.1756C137.595 96.5172 136.664 97.5988 136.896 97.9404C137.129 98.282 139.281 97.3711 139.514 97.7127C139.747 98.0543 138.525 99.4774 138.758 99.7621C139.049 100.104 140.387 99.5344 140.678 99.819C140.968 100.161 140.736 100.844 141.027 101.185C141.317 101.47 142.423 100.901 142.772 101.185C143.062 101.47 142.655 102.495 143.004 102.779C143.353 103.064 144.284 102.438 144.633 102.722C144.982 102.95 144.982 103.576 145.331 103.861C145.68 104.089 146.204 103.975 146.553 104.202C146.902 104.43 147.192 104.601 147.6 104.829C147.949 104.999 147.309 107.163 147.716 107.333C148.123 107.504 148.414 107.903 148.821 108.074C149.228 108.244 150.392 106.423 150.799 106.593C151.206 106.707 151.148 108.187 151.555 108.301C151.962 108.415 152.835 106.764 153.242 106.821C153.649 106.935 153.649 108.7 154.056 108.814C154.464 108.871 155.162 107.447 155.569 107.504C155.976 107.561 156.209 109.269 156.616 109.326C157.023 109.383 157.547 107.732 158.012 107.789C158.419 107.789 158.826 107.903 159.233 107.903C159.641 107.903 160.048 108.074 160.455 108.017C160.862 108.017 161.269 108.187 161.735 108.13C162.142 108.074 162.433 107.447 162.84 107.333C163.247 107.277 164.003 108.984 164.411 108.871C164.818 108.757 164.934 107.504 165.341 107.39C165.748 107.277 166.272 107.561 166.679 107.447C167.086 107.333 167.319 106.821 167.726 106.707C168.133 106.537 168.715 106.935 169.122 106.764C169.529 106.593 170.053 106.764 170.46 106.593C170.867 106.423 170.577 105.056 170.926 104.886C171.275 104.658 171.798 104.772 172.147 104.544C172.496 104.316 173.95 105.683 174.299 105.455C174.648 105.227 174.765 104.544 175.114 104.316C175.463 104.032 175.114 103.007 175.463 102.722C175.812 102.438 176.044 102.153 176.335 101.868C176.626 101.584 176.51 100.901 176.801 100.616C177.091 100.331 178.022 100.616 178.313 100.274C178.604 99.9329 179.244 99.9329 179.535 99.5913C179.767 99.2497 180.233 99.022 180.465 98.6805C180.698 98.3389 180.058 97.428 180.291 97.0295C180.523 96.688 179.884 95.891 180.116 95.4925C180.291 95.1509 181.745 95.4356 181.978 95.0371C182.152 94.6386 181.454 93.8985 181.629 93.5569C181.803 93.1585 183.897 93.5 184.072 93.1015C184.188 92.703 183.257 91.906 183.374 91.5075C183.49 91.1091 184.246 90.8813 184.363 90.4259C184.479 90.0274 182.327 89.1735 182.443 88.7181C182.501 88.3196 183.083 88.0349 183.141 87.6364C183.199 87.238 184.246 86.9533 184.304 86.5548C184.363 86.1563 185.293 85.7578 185.293 85.3593C185.293 84.9608 184.944 84.5054 184.944 84.05C184.944 83.6515 184.072 83.253 184.014 82.7976C184.014 82.3991 183.839 82.0006 183.781 81.6021C183.723 81.2036 184.363 80.6912 184.304 80.2928C184.246 79.8943 183.49 79.6096 183.432 79.2111C183.316 78.8126 182.327 78.6418 182.21 78.2434C182.094 77.8449 184.072 76.8202 183.955 76.4217C183.839 76.0232 184.13 75.397 183.955 75.0554C183.781 74.6569 181.396 75.1692 181.221 74.8277C181.047 74.4292 182.908 73.1198 182.734 72.7213C182.559 72.3229 182.21 71.9813 182.036 71.5828C181.803 71.2412 179.593 72.0382 179.36 71.6966C179.127 71.3551 180.989 69.5903 180.756 69.2487C180.523 68.9072 179.011 69.4195 178.778 69.1349C178.488 68.7933 179.36 67.5409 179.069 67.1993C178.778 66.8578 176.859 68.0533 176.568 67.7117C176.277 67.4271 177.382 65.7192 177.091 65.4346C176.801 65.1499 175.754 65.6054 175.405 65.3777C175.056 65.093 173.892 65.9469 173.543 65.7192C173.194 65.4915 174.241 63.3852 173.892 63.1575C173.543 62.9298 172.38 63.9545 171.973 63.7267C171.624 63.499 171.1 63.6129 170.693 63.4421C170.344 63.2713 170.809 61.3358 170.46 61.165C170.053 60.9942 169.762 60.5388 169.355 60.368C168.948 60.1972 168.482 60.1403 168.075 59.9695C167.668 59.8556 167.203 59.7987 166.796 59.6849C166.388 59.571 165.458 61.3358 165.05 61.2219C164.643 61.1081 164.643 59.1156 164.236 59.0017C163.829 58.9448 163.131 60.3111 162.724 60.2541C162.316 60.1972 161.967 59.1725 161.56 59.1156C161.153 59.0587 160.688 59.4002 160.222 59.3433C159.815 59.3433 159.35 60.7096 158.943 60.7096C158.535 60.7096 158.07 59.0587 157.605 59.1156C157.198 59.1156 156.79 59.8556 156.383 59.9126C155.976 59.9695 155.627 60.4249 155.22 60.4819C154.813 60.5388 154.522 61.165 154.115 61.2788C153.707 61.3927 152.893 59.7418 152.486 59.8556C152.079 59.9695 152.079 61.3927 151.671 61.5066C151.264 61.6204 150.857 61.6773 150.45 61.7912C150.043 61.962 149.112 60.7665 148.705 60.9373C148.298 61.1081 147.89 61.2788 147.483 61.4496C147.076 61.6204 146.96 62.3035 146.553 62.4743C146.204 62.702 146.145 63.4421 145.796 63.6698C145.447 63.8975 144.633 63.499 144.284 63.7267C143.935 63.9545 143.819 64.5237 143.47 64.7514C143.121 65.0361 143.877 66.5162 143.528 66.7439C143.179 67.0286 141.957 66.2316 141.608 66.5162C141.317 66.8008 140.328 66.4593 140.038 66.7439C139.747 67.0286 140.445 68.224 140.154 68.5087C139.863 68.8503 139.747 69.2487 139.514 69.5903C139.281 69.9319 139.456 70.5012 139.223 70.8427C138.991 71.1843 138.467 71.2982 138.234 71.6397C138.002 71.9813 137.769 72.3229 137.536 72.6644C137.362 73.006 135.966 72.7783 135.733 73.1768C135.559 73.5753 136.082 74.2584 135.908 74.6569C135.733 75.0554 134.337 74.9985 134.221 75.397C134.104 75.7955 134.279 76.3647 134.104 76.7632C133.988 77.1617 135.384 77.9587 135.268 78.4141C135.151 78.8126 134.512 79.0973 134.395 79.4958C134.337 79.8943 134.046 80.2928 133.988 80.6913C133.93 81.0897 133.523 81.4882 133.523 81.8867C133.465 82.2852 134.337 82.7976 134.337 83.1961C134.046 83.4807 132.534 83.9361 132.534 84.3346Z" fill="#725048"/>
<path d="M162.026 189.139V244.871V290.869L152.98 285.394C152.98 285.394 135.252 222.246 134.089 185.755L162.026 189.139Z" fill="#EABFAD"/>
<path d="M140.619 294C140.619 289.389 144.342 285.689 147.832 285.518L161.968 282.216V290.641L157.256 292.805C155.627 293.545 153.708 293.943 151.788 293.943H140.619V294Z" fill="#24364F"/>
<path d="M159.466 202.004L242.067 269.122L244.743 265.934C244.743 265.934 196.086 195.311 180.989 176.899L159.466 202.004Z" fill="#EABFAD"/>
<path d="M145.157 130.674L115.316 153.445L106.009 146.785C106.009 146.785 118.05 124.754 135.908 118.662L145.157 130.674Z" fill="#EABFAD"/>
<path d="M144.284 112.969C144.284 112.969 128.113 117.638 119.097 128.055L130.324 142.003C130.731 141.718 144.284 132.553 144.284 132.553V112.969Z" fill="#333333"/>
<path d="M166.738 110.464H154.115C142.947 110.464 133.872 119.345 133.872 130.275L132.703 139.388C132.703 139.388 135.712 160.739 134.111 184.217L194.485 189.139C186.981 171.612 188.784 141.547 188.784 141.547L186.981 130.275C186.981 119.288 177.906 110.464 166.738 110.464Z" fill="#333333"/>
<path d="M235.61 259.502C237.646 257.111 241.543 256.997 244.277 259.217L248 262.234L240.613 270.887L236.89 267.87C234.156 265.65 233.574 261.893 235.61 259.502Z" fill="#24364F"/>
<path d="M162.142 202.802V233.657H133.209L134.1 184.171L162.142 202.802Z" fill="white"/>
<path d="M194.426 189.082C194.426 189.082 174.009 193.352 161.27 203.428C149.378 196.47 147.832 194.998 134.597 185.119C134.409 184.978 134.299 184.31 134.105 184.166C134.105 184.166 151.888 185.124 163.829 184.695C174.93 184.295 192.164 182.249 192.164 182.249C192.92 185.949 194.426 189.082 194.426 189.082Z" fill="white"/>
<path d="M175.405 130.674L205.246 153.445L214.553 146.785C214.553 146.785 202.512 124.754 184.654 118.662L175.405 130.674Z" fill="#EABFAD"/>
<path d="M176.452 112.855C176.452 112.855 192.506 117.637 201.523 128.112L190.296 142.059C189.889 141.775 176.452 131.357 176.452 131.357V112.855Z" fill="#333333"/>
<path d="M195.124 174.053L190.587 180.372C189.249 182.194 186.69 182.649 184.77 181.397L180.175 178.209L184.712 171.89C186.05 170.068 188.609 169.612 190.529 170.865L195.124 174.053Z" fill="#EABFAD"/>
<path d="M213.913 150.371C204.199 163.806 195.124 173.996 195.124 173.996L189.54 170.353C191.401 144.223 204.955 144.336 204.955 144.336C206.351 142.287 209.55 142.002 212.051 143.71C214.494 145.418 215.309 148.435 213.913 150.371Z" fill="#EABFAD"/>
<path d="M125.495 174.053L130.033 180.372C131.37 182.194 133.93 182.649 135.85 181.397L140.445 178.209L135.908 171.89C134.57 170.068 132.01 169.613 130.091 170.865L125.495 174.053Z" fill="#EABFAD"/>
<path d="M106.707 150.371C116.421 163.806 125.495 173.996 125.495 173.996L131.08 170.353C129.218 144.223 115.665 144.337 115.665 144.337C114.269 142.288 111.069 142.003 108.568 143.711C106.125 145.419 105.252 148.436 106.707 150.371Z" fill="#EABFAD"/>
<path d="M148.996 113.197C148.996 113.197 147.716 115.531 152.311 116.84C156.907 118.093 169.588 112.571 169.588 112.571L167.493 98.0542L148.937 100.559L148.996 113.197Z" fill="#EABFAD"/>
<path d="M190.933 183.189L206.206 205.876L183.372 225.801L160.628 202.973L183.663 187.317L190.933 183.189Z" fill="white"/>
<path d="M142.074 111.318C156.151 116.783 164.934 106.422 164.934 106.422L165.516 87.7501C165.516 87.7501 166.912 78.1862 157.256 77.9016L153.242 77.7877C144.749 77.56 142.83 84.7898 142.714 89.7426L142.074 111.318Z" fill="#EABFAD"/>
<path d="M153.997 107.79L144.926 107.526L145.102 101.722L154.173 101.986L153.997 107.79Z" fill="white"/>
<path d="M169.18 91.1089C170.751 91.1658 171.914 92.4182 171.914 93.8984L171.74 99.5342C171.682 101.071 170.402 102.21 168.89 102.21L166.039 102.153L166.272 93.7845C166.33 92.3044 167.61 91.1089 169.18 91.1089Z" fill="#EABFAD"/>
<path d="M151.264 99.136L148.589 99.0791L149.17 95.2649L150.334 95.4357L149.985 97.9405L151.322 97.9974L151.264 99.136Z" fill="#A15E53"/>
<path d="M156.732 104.373L153.126 104.259C150.508 104.203 148.472 102.039 148.53 99.4775L152.195 99.5914C154.755 99.7052 156.79 101.812 156.732 104.373Z" fill="#725048"/>
<path d="M143.877 104.032L145.622 104.089C148.065 104.146 150.101 102.267 150.159 99.9331V99.5915L148.065 99.5346C145.855 99.4777 143.993 101.185 143.877 103.349V104.032Z" fill="#725048"/>
<path d="M165.643 88.3302C165.643 88.3302 165.073 94.7355 162.714 100.371C160.355 106.064 154.511 103.955 154.511 103.955C154.511 103.955 152.86 106.936 149.678 106.822C146.495 106.708 145.532 103.234 145.368 103.006C142.021 103.234 142.501 96.3577 142.501 96.3577L141.143 112.343C141.143 112.343 145.038 114.904 152.171 115.075C163.749 115.417 166.986 108.187 166.986 108.187L167.974 89.3437L165.643 88.3302Z" fill="#725048"/>
<ellipse rx="58.995" ry="10.0723" transform="matrix(-1 0 0 1 191.995 291.072)" fill="black" fill-opacity="0.1"/>
</g>
<defs>
<clipPath id="clip0">
<path d="M0 0H354V358H0V0Z" fill="white"/>
</clipPath>
</defs>
</svg>
