<svg width="271" height="276" viewBox="0 0 271 276" fill="none" xmlns="http://www.w3.org/2000/svg">
<g clip-path="url(#clip0)">
<path fill-rule="evenodd" clip-rule="evenodd" d="M222.968 52.1721C242.424 71.7476 259.249 94.5997 264.052 121.881C268.912 149.483 262.21 177.687 249.456 202.622C236.742 227.48 218.828 251.624 192.766 261.258C167.856 270.466 142.012 255.285 115.681 252.072C87.9409 248.687 56.3843 259.459 34.5237 241.948C12.2039 224.07 7.13992 191.992 4.91544 163.346C2.82306 136.402 11.7104 111.008 22.4304 86.2172C33.8621 59.7806 43.8163 30.1232 68.6964 15.8495C93.9961 1.3351 125.401 4.21737 153.734 10.8883C180.511 17.1928 203.519 32.605 222.968 52.1721Z" fill="#F3F3F3"/>
<ellipse rx="47.384" ry="8.1471" transform="matrix(-1 0 0 1 129.449 225.633)" fill="black" fill-opacity="0.1"/>
<path d="M101.985 188.181L93.4675 187.806L92.8567 200.699C92.7549 202.541 94.1801 204.11 96.0125 204.178C98.8968 204.315 101.34 202.098 101.476 199.198L101.985 188.181Z" fill="#24364F"/>
<path d="M162.521 144.352L129.301 138.451L123.974 182.28L139.108 186.032C149.559 176.994 165.643 158.78 162.521 144.352Z" fill="#151F2C"/>
<path d="M137.988 188.557C132.423 192.616 123.906 193.878 116.033 194.253C110.061 194.526 104.462 194.321 100.832 194.423C96.6917 194.56 99.2027 188.079 99.2027 188.079L113.522 182.008L130.421 174.845L137.988 188.557Z" fill="#DBAB96"/>
<path d="M164.048 214.615L131.982 138.69L106.668 145.239C105.446 159.973 134.323 195.105 138.497 200.801C139.107 201.62 139.718 202.439 140.363 203.257C146.199 210.693 152.952 217.037 154.785 218.708C155.09 218.981 155.26 219.152 155.26 219.152L164.048 214.615Z" fill="#EABFAD"/>
<path fill-rule="evenodd" clip-rule="evenodd" d="M153.854 190.479L164.122 214.889L155.448 219.39C155.448 219.39 155.279 219.22 154.973 218.947C153.141 217.275 146.388 210.931 140.552 203.496C139.907 202.677 139.296 201.858 138.685 201.04L138.685 201.04C138.216 200.4 137.436 199.388 136.421 198.076C143.556 191.518 150.906 190.572 153.854 190.479Z" fill="white"/>
<path d="M155.5 194.379C155.5 194.379 147.43 193.53 139.242 201.807C138.451 200.733 137.3 199.211 137.3 199.211C148.183 190.937 154.561 192.134 154.561 192.134L155.5 194.379Z" fill="#192636"/>
<path d="M157.213 198.438C157.213 198.438 148.005 198.843 142.075 205.393C141.332 204.499 140.093 202.907 140.093 202.907C149.211 195.897 156.358 196.242 156.358 196.242L157.213 198.438Z" fill="#192636"/>
<path d="M136.461 101.784L164.625 123.409L170.326 116.929C170.326 116.929 161.877 97.0432 142.874 91.1765L136.461 101.784Z" fill="#EABFAD"/>
<path d="M143.214 88.5842C143.214 88.5842 148.982 89.7098 158.11 98.4416L150.34 110.789C148.948 109.663 137.818 100.761 137.818 100.761L143.214 88.5842Z" fill="white"/>
<path d="M184.51 104.035L188.684 99.2602C189.906 97.8618 189.77 95.747 188.379 94.5191L184.985 91.5176L180.812 96.2928C179.59 97.6912 179.726 99.806 181.117 101.034L184.51 104.035Z" fill="#EABFAD"/>
<path d="M169.206 123.341C178.096 113.142 184.509 104.035 184.509 104.035L180.539 100.386C160.078 106.9 162.691 117.474 162.691 117.474C161.299 118.941 161.706 121.499 163.539 123.136C165.371 124.739 167.916 124.842 169.206 123.341Z" fill="#EABFAD"/>
<path d="M128.86 85.5828H139.006C157.567 89.0618 153.699 113.654 153.699 113.654C153.699 113.654 162.657 128.623 162.657 145.205L106.634 145.477C106.634 135.518 113.828 126.718 113.828 126.718L112.606 111.13V101.853C112.64 92.882 119.902 85.5828 128.86 85.5828Z" fill="white"/>
<path d="M153.665 63.0026C153.665 63.3437 153.326 63.6848 153.326 63.9918C153.292 64.3329 153.665 64.7081 153.631 65.0491C153.597 65.3902 153.224 65.6972 153.156 66.0042C153.088 66.3112 152.545 66.584 152.477 66.891C152.409 67.198 152.851 67.6755 152.783 67.9825C152.715 68.2895 151.833 68.3918 151.731 68.6988C151.629 69.0057 152.172 69.5515 152.036 69.8585C151.934 70.1654 151.188 70.2337 151.052 70.5406C150.916 70.8476 150.136 70.8135 150 71.0864C149.864 71.3933 150.136 71.8709 150 72.1778C149.831 72.4507 150.543 73.2693 150.373 73.5422C150.204 73.8151 148.575 73.0988 148.371 73.3716C148.168 73.6445 149.118 74.736 148.948 75.0089C148.745 75.2817 147.693 74.8042 147.489 75.043C147.286 75.2817 147.455 75.8616 147.218 76.1003C146.98 76.3391 146.132 75.8957 145.894 76.1003C145.657 76.3391 145.962 77.1236 145.725 77.3282C145.487 77.5329 144.741 77.0895 144.469 77.2941C144.198 77.4988 144.232 77.9763 143.96 78.181C143.689 78.3515 143.281 78.2492 143.01 78.4197C142.739 78.5903 142.501 78.7267 142.23 78.8972C141.958 79.0678 142.433 80.705 142.128 80.8414C141.822 80.9779 141.585 81.3189 141.279 81.4213C140.974 81.5577 140.092 80.1251 139.786 80.2616C139.481 80.3639 139.515 81.5236 139.209 81.6259C138.904 81.7282 138.225 80.398 137.92 80.4662C137.615 80.5344 137.615 81.967 137.275 82.0011C136.97 82.0693 136.461 80.9437 136.122 80.9779C135.816 81.012 135.647 82.3422 135.307 82.3763C135.002 82.4104 134.595 81.1484 134.255 81.1484C133.95 81.1484 133.644 81.2166 133.339 81.2166C133 81.2166 132.728 81.3531 132.389 81.3189C132.05 81.2848 131.744 81.4554 131.439 81.4213C131.099 81.3872 130.896 80.8755 130.591 80.8073C130.285 80.7391 129.708 82.1034 129.403 82.0352C129.097 81.967 128.996 80.9438 128.69 80.8755C128.385 80.8073 127.978 81.012 127.672 80.9096C127.367 80.8073 127.163 80.4321 126.858 80.2957C126.552 80.1934 126.111 80.4662 125.806 80.3298C125.501 80.1934 125.093 80.3298 124.788 80.1934C124.483 80.0569 124.686 78.9996 124.415 78.829C124.143 78.6585 123.77 78.7267 123.465 78.5561C123.193 78.3856 122.073 79.443 121.802 79.2383C121.53 79.0337 121.463 78.5561 121.191 78.3515C120.92 78.1468 121.191 77.3282 120.92 77.1236C120.682 76.9189 120.478 76.6802 120.241 76.4414C120.003 76.2027 120.105 75.691 119.902 75.4523C119.664 75.2135 118.951 75.4523 118.748 75.2135C118.544 74.9747 118.001 74.9406 117.832 74.7019C117.628 74.429 117.323 74.2585 117.119 73.9856C116.949 73.7127 117.425 72.9964 117.255 72.7236C117.085 72.4507 117.56 71.8368 117.391 71.5298C117.221 71.2569 116.135 71.4616 115.999 71.1887C115.864 70.8817 116.373 70.3019 116.271 69.9949C116.135 69.6879 114.54 69.9608 114.438 69.6538C114.337 69.3468 115.083 68.7329 114.981 68.4259C114.88 68.1189 114.337 67.9143 114.235 67.6073C114.167 67.3003 115.762 66.6181 115.694 66.2771C115.626 65.9701 115.219 65.7313 115.151 65.4243C115.117 65.1174 114.303 64.8786 114.269 64.5716C114.235 64.2646 113.522 63.9577 113.488 63.6166C113.488 63.3096 113.76 62.9344 113.76 62.5933C113.76 62.2522 114.438 61.9453 114.472 61.6383C114.506 61.2972 114.608 60.9902 114.642 60.6832C114.676 60.3422 114.201 59.967 114.235 59.6259C114.303 59.3189 114.846 59.0801 114.913 58.7732C114.981 58.4662 115.762 58.3298 115.864 58.0228C115.931 57.7158 114.438 56.9313 114.54 56.6243C114.642 56.3173 114.404 55.8398 114.54 55.5328C114.642 55.2259 116.508 55.6352 116.644 55.3282C116.78 55.0212 115.355 53.998 115.49 53.691C115.626 53.384 115.864 53.1111 116.033 52.8042C116.203 52.5313 117.9 53.1794 118.069 52.9065C118.239 52.6336 116.814 51.2693 116.983 50.9964C117.187 50.7235 118.307 51.1328 118.51 50.8941C118.714 50.6212 118.069 49.6321 118.273 49.3933C118.476 49.1545 119.969 50.0414 120.173 49.8026C120.411 49.5638 119.528 48.2336 119.766 47.9948C120.003 47.7561 120.784 48.1313 121.055 47.9266C121.293 47.722 122.209 48.37 122.481 48.1654C122.752 47.9607 121.972 46.3576 122.243 46.153C122.514 45.9824 123.431 46.7669 123.702 46.5964C123.974 46.4259 124.381 46.5282 124.652 46.3576C124.924 46.1871 124.55 44.7204 124.856 44.584C125.161 44.4476 125.399 44.1065 125.704 43.97C126.01 43.8336 126.383 43.7654 126.688 43.6631C126.994 43.5607 127.367 43.5266 127.672 43.4243C127.978 43.322 128.69 44.7204 129.03 44.6181C129.335 44.5499 129.335 42.9468 129.64 42.8786C129.946 42.8103 130.489 43.9018 130.794 43.8677C131.099 43.8336 131.337 43.015 131.676 42.9809C131.982 42.9468 132.355 43.1855 132.694 43.1855C133 43.1855 133.339 44.277 133.678 44.277C134.018 44.277 134.357 43.015 134.696 43.015C135.036 43.0491 135.307 43.5948 135.613 43.6289C135.952 43.6631 136.189 44.0041 136.529 44.0724C136.834 44.1406 137.072 44.6181 137.377 44.6863C137.682 44.7545 138.327 43.4584 138.633 43.5607C138.938 43.6289 138.972 44.7545 139.277 44.8569C139.583 44.9592 139.888 44.9933 140.194 45.0956C140.499 45.1979 141.245 44.277 141.517 44.4134C141.822 44.5499 142.162 44.6863 142.433 44.8227C142.739 44.9592 142.84 45.4708 143.146 45.6414C143.417 45.8119 143.451 46.3917 143.723 46.5623C143.994 46.7328 144.605 46.4259 144.876 46.5964C145.148 46.801 145.25 47.2104 145.521 47.415C145.792 47.6197 145.216 48.7793 145.453 48.984C145.691 49.1886 146.675 48.5747 146.912 48.8135C147.15 49.0522 147.896 48.7793 148.134 49.0181C148.371 49.2569 147.828 50.1778 148.066 50.4166C148.27 50.6553 148.371 50.9964 148.575 51.2352C148.779 51.508 148.643 51.9856 148.813 52.2243C148.982 52.4972 149.389 52.5995 149.559 52.8724C149.729 53.1452 149.932 53.384 150.068 53.691C150.238 53.9639 151.29 53.7933 151.425 54.1003C151.561 54.4073 151.188 54.953 151.29 55.26C151.425 55.567 152.477 55.5328 152.579 55.8398C152.681 56.1468 152.545 56.5902 152.647 56.8972C152.749 57.2042 151.663 57.8522 151.731 58.1592C151.799 58.4662 152.308 58.6708 152.375 59.0119C152.443 59.3189 152.647 59.6259 152.681 59.967C152.715 60.2739 153.02 60.5809 153.054 60.922C153.088 61.229 152.443 61.6042 152.443 61.9453C152.511 62.3546 153.665 62.6957 153.665 63.0026Z" fill="#725048"/>
<path d="M143.325 86.9183C143.823 87.6295 142.985 91.1729 137.183 91.1729C131.211 91.1729 124.201 88.4705 122.693 86.7918C122.693 86.7918 124.265 86.196 124.819 86.0819C129.402 85.1384 126.179 74.1221 126.179 74.1221L141.89 74.3267L141.924 86.6306C141.924 86.6306 143.147 86.6633 143.325 86.9183Z" fill="white"/>
<path d="M141.924 86.9129C141.924 86.9129 142.399 89.0617 136.597 89.0617C130.624 89.0617 124.754 86.5377 124.754 86.0943L126.179 72.7578L141.89 72.9625V86.9129H141.924Z" fill="#EABFAD"/>
<path d="M106.634 145.478C106.634 145.478 123.295 148.991 133.509 157.313C144.809 157.313 162.691 145.205 162.691 145.205C162.691 145.205 162.759 143.295 162.657 140.771H107.075C106.498 143.772 106.634 145.478 106.634 145.478Z" fill="#192636"/>
<path d="M164.863 214.24L154.921 218.845L158.484 226.622L173.177 219.834L171.786 216.799C170.564 214.172 167.476 213.047 164.863 214.24Z" fill="#24364F"/>
<path d="M140.295 153.663L152.07 177.846L121.734 189.58C121.734 189.58 104.903 158.643 106.634 145.273L140.295 153.663Z" fill="#192636"/>
<path d="M121.191 103.967L90.4141 114.541L87.3262 106.628C87.3262 106.628 102.155 92.3705 117.289 92.2L121.191 103.967Z" fill="#EABFAD"/>
<path d="M119.442 88.6714C119.442 88.6714 111.588 89.4371 102.019 95.2697L106.905 109.05C107.278 108.913 121.148 104.1 121.148 104.1C121.148 104.1 125.061 101.837 125.331 97.5744C125.851 89.3501 119.442 88.6714 119.442 88.6714Z" fill="white"/>
<path d="M95.8428 133.198L98.1163 139.133C98.7949 140.873 100.729 141.726 102.426 141.043L106.633 139.406L104.36 133.471C103.681 131.732 101.747 130.879 100.05 131.561L95.8428 133.198Z" fill="#EABFAD"/>
<path d="M85.8668 110.653C90.7871 123.273 95.8431 133.199 95.8431 133.199L100.899 131.357C104.564 110.107 94.0446 107.549 94.0446 107.549C93.366 105.639 90.9567 104.82 88.6493 105.707C86.4097 106.594 85.1542 108.811 85.8668 110.653Z" fill="#EABFAD"/>
<path d="M102.799 130.845L95.5378 133.301C95.1306 133.437 94.6895 133.233 94.5537 132.789L93.8072 130.504C93.6715 130.095 93.8751 129.651 94.3162 129.515L101.578 127.059C101.985 126.922 102.426 127.127 102.562 127.571L103.308 129.856C103.444 130.265 103.241 130.708 102.799 130.845Z" fill="#192636"/>
<path d="M183.39 106.73L177.35 101.989C177.011 101.716 176.943 101.239 177.214 100.898L178.674 99.0216C178.945 98.6805 179.42 98.6123 179.759 98.8852L185.799 103.626C186.139 103.899 186.207 104.377 185.935 104.718L184.476 106.594C184.205 106.935 183.73 107.003 183.39 106.73Z" fill="#192636"/>
<path d="M146.403 84.15C135.681 88.4477 128.962 80.3299 128.962 80.3299L128.521 65.6973C128.521 65.6973 127.469 58.1934 134.832 57.9546L137.886 57.8523C144.367 57.6477 145.793 63.3097 145.894 67.1981L146.403 84.15Z" fill="#EABFAD"/>
<path d="M139.244 82.6152C143.911 82.6152 147.694 78.8128 147.694 74.1222C147.694 69.4316 143.911 65.6292 139.244 65.6292C134.578 65.6292 130.795 69.4316 130.795 74.1222C130.795 78.8128 134.578 82.6152 139.244 82.6152Z" fill="#EABFAD"/>
<path d="M138.674 81.3803L145.594 81.1733L145.459 76.6046L138.539 76.8116L138.674 81.3803Z" fill="white"/>
<path d="M128.114 55.226L127.096 55.2601C124.958 55.3283 123.295 57.102 123.363 59.2508L123.635 68.9035L124.653 68.8694C128.453 68.7671 131.439 65.5609 131.338 61.7407L131.236 58.1593C131.168 56.5221 129.777 55.1919 128.114 55.226Z" fill="#725048"/>
<path d="M125.773 68.3579C124.585 68.392 123.669 69.3811 123.703 70.5749L123.839 75.009C123.873 76.2028 124.857 77.1238 126.044 77.0897L128.216 77.0214L128.013 70.4726C127.945 69.2447 126.961 68.3237 125.773 68.3579Z" fill="#EABFAD"/>
<path d="M140.737 74.5996L142.773 74.5655L142.366 71.564L141.45 71.7004L141.721 73.6787L140.703 73.7128L140.737 74.5996Z" fill="#A15E53"/>
<path d="M136.597 78.7267L139.345 78.6584C141.347 78.5902 142.908 76.9189 142.841 74.9065L140.058 74.9747C138.09 75.0429 136.529 76.6801 136.597 78.7267Z" fill="#725048"/>
<path d="M146.37 78.42L145.046 78.4541C143.18 78.5223 141.653 77.0557 141.585 75.1797V74.9068L143.214 74.8727C144.91 74.8386 146.336 76.1688 146.403 77.8743L146.37 78.42Z" fill="#725048"/>
<path d="M129.81 65.6289C129.81 65.6289 130.048 69.7902 131.948 74.2243C133.848 78.6584 138.87 77.8739 138.87 77.8739C138.87 77.8739 139.345 80.3638 141.924 80.2956C144.503 80.2274 144.876 77.8398 145.012 77.6692C147.727 77.8398 147.693 72.2119 147.693 72.2119L148.439 84.9685C148.439 84.9685 145.284 86.9468 139.549 87.1173C130.183 87.3902 127.57 81.7282 127.57 81.7282L126.79 66.9933L129.81 65.6289Z" fill="#725048"/>
<path d="M114.544 194.316C111.441 194.417 108.481 194.406 105.895 194.397C103.991 194.39 102.289 194.384 100.881 194.423C96.7126 194.56 99.2412 188.065 99.2412 188.065L114.288 181.716C113.189 185.177 113.243 188.805 114.544 194.316Z" fill="white"/>
<mask id="mask0" mask-type="alpha" maskUnits="userSpaceOnUse" x="98" y="181" width="17" height="14">
<path d="M114.514 194.293C111.417 194.393 108.463 194.382 105.881 194.373C103.981 194.366 102.282 194.36 100.877 194.4C96.7159 194.536 99.2398 188.053 99.2398 188.053L114.258 181.716C113.162 185.171 113.215 188.792 114.514 194.293Z" fill="white"/>
</mask>
<g mask="url(#mask0)">
<path d="M109.278 180.226C109.278 180.226 104.85 187.337 109.053 198.229C107.747 198.516 106.527 198.899 106.527 198.899C102.995 186.106 107.145 180.113 107.145 180.113L109.278 180.226Z" fill="#192636"/>
<path d="M112.499 180.004C112.499 180.004 109.557 188.787 113.535 196.701C112.432 197.078 110.499 197.669 110.499 197.669C107.241 186.599 110.139 180.017 110.139 180.017L112.499 180.004Z" fill="#192636"/>
</g>
</g>
<defs>
<clipPath id="clip0">
<rect width="271" height="276" fill="white"/>
</clipPath>
</defs>
</svg>
