<svg width="271" height="276" viewBox="0 0 271 276" fill="none" xmlns="http://www.w3.org/2000/svg">
<g clip-path="url(#clip0)">
<path fill-rule="evenodd" clip-rule="evenodd" d="M222.967 52.1721C242.424 71.7476 259.249 94.5997 264.052 121.881C268.911 149.483 262.209 177.687 249.455 202.622C236.742 227.48 218.828 251.624 192.766 261.258C167.855 270.466 142.011 255.285 115.681 252.072C87.9404 248.687 56.3838 259.459 34.5232 241.948C12.2034 224.07 7.13943 191.992 4.91495 163.346C2.82257 136.402 11.7099 111.008 22.4299 86.2172C33.8617 59.7806 43.8158 30.1232 68.6959 15.8495C93.9956 1.3351 125.4 4.21737 153.733 10.8883C180.51 17.1928 203.519 32.605 222.967 52.1721Z" fill="#F3F3F3"/>
<ellipse rx="75.3088" ry="10.7029" transform="matrix(-1 0 0 1 127.365 223.646)" fill="black" fill-opacity="0.07"/>
<g clip-path="url(#clip1)">
<path d="M138.314 174.574C138.735 179.285 137.81 184.418 136.352 189.326C133.043 200.383 126.958 210.058 126.958 210.058L123.958 212.201L123.481 212.54V175.985L119.808 131.56L148.325 131.419C154.073 144.45 146.446 163.997 138.314 174.574Z" fill="#0F1F32"/>
<path d="M136.352 189.326C133.043 200.383 126.958 210.058 126.958 210.058L123.958 212.201H123.481V189.326H136.352Z" fill="#DBAB96"/>
<path d="M129.201 208.704L121.21 205.488V211.863L125.78 214.176H135.482C135.034 211.101 132.398 208.704 129.201 208.704Z" fill="#9FB1CF"/>
<path d="M124.154 189.326L124.266 131.56L98.3572 131.701C92.5809 144.732 101.75 163.997 109.882 174.574C108.48 178.382 109.012 183.741 110.414 189.326C113.022 199.734 118.63 210.904 120.341 214.176H124.098L124.154 189.326Z" fill="#1E2B3A"/>
<path d="M124.154 189.326H110.415C113.022 199.734 118.63 210.904 120.341 214.176H124.098L124.154 189.326Z" fill="#EABFAD"/>
<path d="M136.464 85.2457L159.569 103.382L166.747 98.0794C166.747 98.0794 157.438 80.5353 143.614 75.712L136.464 85.2457Z" fill="#EABFAD"/>
<path d="M137.193 71.1145C137.193 71.1145 149.699 74.8941 156.653 83.1867L147.988 94.2717C147.68 94.046 137.866 84.3996 137.866 84.3996L137.193 71.1145Z" fill="white"/>
<path d="M152.503 88.5176L150.54 91.0279L148.914 87.6714L152.503 88.5176Z" fill="#F1F1F1"/>
<path d="M119.78 69.14H129.566C138.202 69.14 145.212 76.1915 145.212 84.879V92.1279L145.296 102.169C145.296 102.169 148.269 108.431 148.269 131.419L98.3292 131.701C98.3292 122.083 105.283 108.882 105.283 108.882L104.133 93.8485V84.9072C104.133 76.1915 111.143 69.14 119.78 69.14Z" fill="white"/>
<path d="M138.819 106.541H121.182C117.34 106.541 114.228 103.41 114.228 99.5462V98.0513H145.773V99.5462C145.773 103.41 142.661 106.541 138.819 106.541Z" fill="#D5E5FD"/>
<path d="M117.06 102.31H141.735C146.614 102.31 150.568 98.3334 150.568 93.4255V91.7896C150.568 86.8817 146.614 82.9047 141.735 82.9047H117.06C112.181 82.9047 108.227 86.8817 108.227 91.7896V93.4255C108.227 98.3334 112.181 102.31 117.06 102.31Z" fill="white"/>
<path d="M125.921 211.383C125.921 208.619 123.93 206.363 121.462 206.363C118.995 206.363 117.004 208.619 117.004 211.383V214.204H125.921V211.383Z" fill="#D5E5FD"/>
<path d="M98.3291 131.701C98.3291 131.701 114.396 135.086 124.238 143.125C135.146 143.125 148.269 131.419 148.269 131.419C148.269 131.419 148.521 129.501 148.241 127.132H98.6095C98.0487 130.037 98.3291 131.701 98.3291 131.701Z" fill="#1E2B3A"/>
<path d="M151.69 119.714L148.185 124.734C147.175 126.201 145.156 126.568 143.698 125.524L140.137 123.014L143.642 117.993C144.651 116.526 146.67 116.16 148.128 117.203L151.69 119.714Z" fill="#EABFAD"/>
<path d="M166.242 100.9C158.728 111.562 151.69 119.713 151.69 119.713L147.371 116.808C148.829 96.0204 159.288 96.105 159.288 96.105C160.354 94.4691 162.821 94.2716 164.756 95.6255C166.691 96.9512 167.336 99.3205 166.242 100.9Z" fill="#EABFAD"/>
<path d="M110.583 72.9195L93.8148 48.7751L85.4028 51.7368C85.4028 51.7368 89.1882 71.2554 100.965 79.9711L110.583 72.9195Z" fill="#EABFAD"/>
<path d="M105.76 86.2048C105.76 86.2048 94.9084 78.8994 90.6743 68.9145L102.199 60.8757C102.423 61.186 111.536 72.4402 111.536 72.4402L105.76 86.2048Z" fill="white"/>
<path d="M110.33 42.2879L116.219 40.6237C117.929 40.1442 119.724 41.1596 120.2 42.8802L121.378 47.1111L115.49 48.7753C113.779 49.2548 111.985 48.2394 111.508 46.5188L110.33 42.2879Z" fill="#EABFAD"/>
<path d="M87.2253 47.5624C99.7592 44.093 110.33 42.2878 110.33 42.2878L111.816 47.2803C97.6001 62.427 89.5526 55.7139 89.5526 55.7139C87.73 56.278 85.6831 54.8677 85.0382 52.583C84.4213 50.3266 85.4027 48.0701 87.2253 47.5624Z" fill="#EABFAD"/>
<path d="M133.099 70.2119C133.099 70.2119 133.548 72.2427 128.052 72.2427C122.388 72.2427 116.808 69.8452 116.808 69.4221L118.154 56.7576L133.099 56.955V70.2119Z" fill="#EABFAD"/>
<path d="M133.099 69.6478V60.1423H119.584C119.584 60.1423 121.126 70.8888 133.099 69.6478Z" fill="#DBAB96"/>
<path d="M171.626 214.204H92.1603V216.065H171.626V214.204Z" fill="#454A4D"/>
<path d="M160.466 140.135H135.595L146.418 119.714H171.29L160.466 140.135Z" fill="#737C8A"/>
<path d="M164.195 140.135H139.296L150.119 119.714H175.019L164.195 140.135Z" fill="#A5ABB8"/>
<path d="M154.718 130.488C154.634 130.714 150.175 140.163 150.175 140.163H154.522L154.718 130.488Z" fill="#737C8A"/>
<path d="M131.304 216.065H90.5621C86.2159 216.065 82.6828 219.619 82.6828 223.991H131.304V216.065Z" fill="#737C8A"/>
<path d="M173.252 216.065H131.304V223.991H173.252V216.065Z" fill="#A5ABB8"/>
<path d="M159.485 220.973H154.073V131.475C154.073 129.98 155.279 128.768 156.765 128.768C158.251 128.768 159.457 129.98 159.457 131.475V220.973H159.485Z" fill="#A5ABB8"/>
<path d="M133.127 214.204H92.1603V216.065H133.127V214.204Z" fill="#313336"/>
<path d="M125.51 59.1684C132.952 59.7016 139.396 54.2036 139.905 46.8883C140.413 39.573 134.792 33.2105 127.351 32.6773C119.91 32.1441 113.465 37.6421 112.957 44.9574C112.448 52.2728 118.069 58.6352 125.51 59.1684Z" fill="#725048"/>
<path d="M116.746 53.964C113.753 62.6288 110.478 69.3853 109.465 69.0067C108.449 68.6788 110.051 61.3433 113.095 52.6822C116.087 44.0174 119.362 37.2609 120.375 37.6395C121.391 37.9673 119.738 45.2992 116.746 53.964Z" fill="#725048"/>
<path d="M136.701 71.8045C137.752 71.7559 138.22 64.2924 137.746 55.1341C137.272 45.9759 136.036 38.5911 134.985 38.6396C133.934 38.6882 133.466 46.1517 133.94 55.3099C134.414 64.4682 135.65 71.853 136.701 71.8045Z" fill="#725048"/>
<path d="M117.482 44.706L116.559 51.1911L118.689 51.6996L117.935 56.9722C117.572 59.5663 118.666 62.3019 120.796 64.0229C123.207 65.9414 126.683 67.8321 130.41 67.1005C133.576 66.4814 135.873 63.86 136.348 60.561L137.913 49.5645C138.192 47.6753 137.967 45.786 137.322 44.0657C136.032 40.5122 133.088 37.6066 129.36 36.7027L128.996 36.618C123.475 35.3468 118.32 38.954 117.482 44.706Z" fill="#EABFAD"/>
<path d="M138.745 59.8261C139.219 54.819 135.565 50.3704 130.584 49.8898C125.602 49.4092 121.18 53.0787 120.706 58.0857C120.232 63.0928 123.886 67.5414 128.867 68.022C133.849 68.5026 138.271 64.8332 138.745 59.8261Z" fill="#EABFAD"/>
<path d="M132.761 58.2461L132.901 57.3158C133.518 57.457 134.078 57.0907 134.162 56.4705L134.218 56.1322L135.143 56.3581L135.087 56.6964C134.919 57.8241 133.883 58.5285 132.761 58.2461Z" fill="#A15E53"/>
<path d="M129.284 62.4197L128.387 61.6867C128.443 61.6022 129.928 59.8557 132.395 60.2794C132.423 60.2794 132.423 60.2794 132.451 60.2794C135.003 60.7595 135.508 62.9013 135.536 62.9858L134.415 63.239C134.415 63.1826 134.022 61.7454 132.228 61.4065C130.433 61.0676 129.312 62.3633 129.284 62.4197Z" fill="#A15E53"/>
<path d="M114.832 51.9367C118.092 43.7225 119.828 36.7119 118.709 36.278C117.59 35.8442 114.04 42.1514 110.78 50.3655C107.52 58.5797 105.784 65.5904 106.903 66.0242C108.022 66.4581 111.572 60.1509 114.832 51.9367Z" fill="#725048"/>
<path d="M115.659 47.9163L116.278 47.9607C117.208 48.0275 117.93 48.8445 117.867 49.7583L117.483 55.2918L115.623 55.1584C114.435 55.0732 113.521 54.0382 113.602 52.8706L113.838 49.4692C113.901 48.5554 114.729 47.8495 115.659 47.9163Z" fill="#EABFAD"/>
<path d="M118.264 69.3297C119.636 69.4277 121.282 61.8452 121.941 52.3938C122.599 42.9423 122.021 35.201 120.649 35.103C119.277 35.005 117.631 42.5875 116.972 52.0389C116.314 61.4904 116.892 69.2317 118.264 69.3297Z" fill="#725048"/>
<path d="M118.012 49.9089L116.017 46.4955L118.954 36.359L127.397 34.9423L132.737 37.3466C132.216 44.8574 125.601 50.4527 118.012 49.9089Z" fill="#725048"/>
<path d="M130.558 38.6022L130.006 40.4556L132.339 41.1382L132.892 39.2849L130.558 38.6022Z" fill="white"/>
</g>
</g>
<defs>
<clipPath id="clip0">
<path d="M0 0H271V276H0V0Z" fill="white"/>
</clipPath>
<clipPath id="clip1">
<rect x="82.6828" y="30.1875" width="92.3361" height="193.804" fill="white"/>
</clipPath>
</defs>
</svg>
