<svg width="354" height="358" viewBox="0 0 354 358" fill="none" xmlns="http://www.w3.org/2000/svg">
<g clip-path="url(#clip0)">
<path fill-rule="evenodd" clip-rule="evenodd" d="M291.256 67.6726C316.672 93.0639 338.65 122.705 344.924 158.092C351.272 193.894 342.517 230.478 325.857 262.822C309.25 295.064 285.849 326.382 251.805 338.878C219.265 350.822 185.506 331.13 151.111 326.963C114.874 322.572 73.6528 336.545 45.0969 313.832C15.9411 290.641 9.32615 249.033 6.42038 211.877C3.68715 176.927 15.2964 143.988 29.2997 111.832C44.2327 77.5415 57.2355 39.0729 89.7357 20.5584C122.784 1.73177 163.807 5.47037 200.818 14.1233C235.796 22.3009 265.851 42.292 291.256 67.6726Z" fill="#F3F3F3"/>
<ellipse rx="58.995" ry="10.0723" transform="matrix(-1 0 0 1 183.995 286.07)" fill="black" fill-opacity="0.1"/>
<path d="M156.17 189.688L158.677 191.763L206.036 237.132L234.753 259.596L237.092 262.831L239.782 259.596C239.782 259.596 239.598 259.107 239.232 258.253C237.092 253.125 229.576 236.122 219.672 224.951C216.432 221.288 209.52 215.472 206.036 214.251C193.248 190.054 186.838 173.393 169.231 168.387L158.799 186.696L156.17 189.688Z" fill="#192636"/>
<path d="M206.097 237.132L235.93 261.855L239.232 258.253C237.092 253.125 229.654 235.084 218.449 223.634L206.097 237.132Z" fill="#EABFAD"/>
<path d="M230.612 252.942C232.629 250.5 236.542 250.378 239.232 252.637L242.961 255.75L235.563 264.602L231.834 261.488C229.083 259.23 228.533 255.384 230.612 252.942Z" fill="#24364F"/>
<path d="M139.307 230.97C138.635 239.433 140.574 243.369 141.114 245.09C146.08 260.924 147.695 269.593 151.503 280.168C152.114 281.144 152.42 281.694 152.42 281.694L156.944 284.868V237.986V196.415L158.046 175.521L125.705 175.521C127.806 194.099 132.477 209.845 139.307 230.97Z" fill="#192636"/>
<path d="M140.639 243.724C144 255.18 148.549 273.261 151.503 280.168L156.944 280.9V243.724C151.687 243.602 145.958 243.663 140.639 243.724Z" fill="#EABFAD"/>
<path d="M141.355 288.165C141.355 283.647 144.045 279.985 146.674 279.863L157.005 276.627V284.868L153.521 287.005C152.298 287.737 150.892 288.165 149.486 288.165H141.355Z" fill="#24364F"/>
<path d="M170.394 121.576L200.227 144.833L209.52 137.996C209.52 137.996 196.942 120.438 179.625 109.306L170.394 121.576Z" fill="#EABFAD"/>
<path d="M171.051 105.765C171.051 105.765 187.129 110.648 196.116 121.331L184.928 135.554C184.561 135.249 171.051 124.627 171.051 124.627V105.765Z" fill="white"/>
<path d="M140.133 121.576L112.478 140.86L101.845 136.606C101.845 136.606 112.478 122.079 130.901 109.306L140.133 121.576Z" fill="#EABFAD"/>
<path d="M140.133 104.924C140.133 104.924 123.932 109.685 114.945 120.368L126.133 134.591C126.499 134.286 139.215 121.894 139.215 121.894L140.133 104.924Z" fill="white"/>
<path d="M121.187 128.339L124.233 132.163L127.321 123.62L121.187 128.339Z" fill="#D5E5FD"/>
<path d="M161.277 103.525L147.793 103.525C136.996 103.525 128.713 109.916 128.713 121.087V130.366L133.998 151.193C133.998 151.193 125.704 164.818 125.704 175.527L186.247 174.872C186.247 164.374 173.798 151.193 173.798 151.193L179.981 128.041V121.087C179.981 109.916 172.073 103.525 161.277 103.525Z" fill="white"/>
<path d="M142.134 139.143L163.103 143.355C167.199 144.149 171.051 141.036 171.051 136.824V136.152L142.134 139.143Z" fill="#D5E5FD"/>
<path d="M162.021 139.816H133.64C128.427 139.816 124.228 135.83 124.228 130.883V130.104C124.228 125.157 128.427 121.171 133.64 121.171H162.021C167.233 121.171 171.433 125.157 171.433 130.104V130.883C171.481 135.83 167.233 139.816 162.021 139.816Z" fill="white"/>
<path d="M187.349 181.23C187.349 181.23 172.171 181.757 159.455 192.073C149.652 185.922 141.934 176.097 141.934 176.097L186.325 174.027C187.059 177.751 187.349 181.23 187.349 181.23Z" fill="#192636"/>
<path d="M190.079 165.771L185.555 172.242C184.21 174.134 181.643 174.561 179.747 173.28L175.101 170.044L179.625 163.574C180.97 161.681 183.538 161.254 185.433 162.536L190.079 165.771Z" fill="#EABFAD"/>
<path d="M120.447 165.771L124.971 172.242C126.316 174.134 128.884 174.561 130.779 173.28L135.425 170.044L130.901 163.574C129.556 161.681 126.989 161.254 125.093 162.536L120.447 165.771Z" fill="#EABFAD"/>
<path d="M208.848 141.659C199.127 155.332 190.018 165.771 190.018 165.771L184.455 162.047C193.747 139.99 199.861 135.493 199.861 135.493C201.206 133.418 204.446 133.112 206.953 134.883C209.459 136.592 210.315 139.644 208.848 141.659Z" fill="#EABFAD"/>
<path d="M101.679 141.659C111.399 155.332 120.508 165.771 120.508 165.771L126.071 162.047C118.653 141.659 110.665 135.493 110.665 135.493C109.32 133.418 106.08 133.112 103.574 134.883C101.067 136.592 100.211 139.644 101.679 141.659Z" fill="#EABFAD"/>
<path d="M145.885 103.481C145.885 103.481 144.294 105.937 148.88 107.219C153.465 108.501 164.586 103.018 164.586 103.018L162.507 88.2457L149.791 87.4521L145.885 103.481Z" fill="#EABFAD"/>
<path d="M145.904 103.448L146.439 101.204L158.417 97.1577C158.356 97.1577 155.136 106.317 145.904 103.448Z" fill="#A15E53"/>
<path d="M150.403 93.0068C141.59 93.0068 134.447 85.8736 134.447 77.0743C134.447 68.2751 141.59 61.1418 150.403 61.1418C159.215 61.1418 166.359 68.2751 166.359 77.0743C166.359 85.8736 159.215 93.0068 150.403 93.0068Z" fill="#725048"/>
<path d="M161.163 87.5125C163.975 98.1342 167.276 106.497 168.499 106.131C169.722 105.826 168.438 96.9133 165.564 86.2916C162.752 75.67 159.451 67.3069 158.228 67.6732C157.006 67.9784 158.35 76.8909 161.163 87.5125Z" fill="#725048"/>
<path d="M136.168 107.159C134.928 107.01 134.984 98.0427 136.293 87.1299C137.602 76.217 139.668 67.491 140.909 67.6398C142.149 67.7886 142.093 76.7558 140.784 87.6687C139.475 98.5815 137.409 107.308 136.168 107.159Z" fill="#725048"/>
<path d="M163.586 85.2495C160.42 75.1472 158.949 66.6148 160.303 66.1919C161.656 65.7689 165.32 73.6156 168.487 83.7179C171.654 93.8202 173.124 102.353 171.771 102.776C170.417 103.199 166.753 95.3519 163.586 85.2495Z" fill="#725048"/>
<path d="M162.936 80.3708H162.202C161.101 80.3708 160.184 81.2865 160.184 82.3853V89.0391H162.385C163.791 89.0391 164.953 87.8793 164.953 86.4753V82.3853C164.953 81.2865 164.036 80.3708 162.936 80.3708Z" fill="#EABFAD"/>
<path d="M148.202 66.2695C154.805 66.2695 160.184 71.6414 160.184 78.2342V88.9779C160.184 95.5707 154.805 100.943 148.202 100.943C141.599 100.943 136.22 95.5707 136.22 88.9779V78.2342C136.158 71.6414 141.538 66.2695 148.202 66.2695Z" fill="#EABFAD"/>
<path d="M143.341 88.5203C142.669 88.5203 141.996 88.2151 141.569 87.7268C141.079 87.1774 140.835 86.3838 140.957 85.5902L141.079 84.7356L142.363 84.9187L142.241 85.7733C142.18 86.2007 142.302 86.5669 142.547 86.8721C142.73 87.1163 143.036 87.2384 143.341 87.2384V88.5203Z" fill="#A15E53"/>
<path d="M158.106 105.765C156.485 105.765 155.171 96.5547 155.171 85.1932C155.171 73.8317 156.485 64.6213 158.106 64.6213C159.726 64.6213 161.04 73.8317 161.04 85.1932C161.04 96.5547 159.726 105.765 158.106 105.765Z" fill="#725048"/>
<path d="M160.001 82.5685V66.2698H143.678C143.678 75.3043 151.014 82.5685 160.001 82.5685Z" fill="#725048"/>
<path d="M146.139 67.9685L146.638 70.2339L143.832 70.8507L143.333 68.5853L146.139 67.9685Z" fill="white"/>
<path d="M139.368 91.512C139.368 91.512 140.529 97.3722 145.603 97.3722C150.739 97.3722 151.839 91.512 151.839 91.512H139.368Z" fill="white"/>
</g>
<defs>
<clipPath id="clip0">
<path d="M0 0H354V358H0V0Z" fill="white"/>
</clipPath>
</defs>
</svg>
